<?xml version="1.0" standalone="no"?>
<!DOCTYPE svg PUBLIC "-//W3C//DTD SVG 1.1//EN" "http://www.w3.org/Graphics/SVG/1.1/DTD/svg11.dtd">
<svg width="100%" height="100%" viewBox="0 0 1596 357" version="1.1" xmlns="http://www.w3.org/2000/svg" xmlns:xlink="http://www.w3.org/1999/xlink" xml:space="preserve" style="fill-rule:evenodd;clip-rule:evenodd;stroke-linejoin:round;stroke-miterlimit:1.41421;">
    <g id="Layer 1">
        <path d="M460.484,35.1583C462.73,35.4958 464.867,35.8333 466.788,35.8333C469.142,35.8333 471.171,35.4958 472.988,35.1583C472.025,49.8917 472.025,71.2625 472.025,73.6208C472.025,87.7917 472.455,95.6667 476.73,101.179C480.15,105.675 487.096,108.488 493.83,108.488C496.821,108.488 511.355,107.813 514.884,92.0667C516.592,84.4208 516.7,71.7083 516.7,68.9C516.7,64.625 516.271,42.4667 515.205,35.1583C516.592,35.4958 517.771,35.8333 520.225,35.8333C522.575,35.8333 523.646,35.4958 524.93,35.1583C523.538,45.3917 523.113,58.2125 523.113,74.8583C523.113,85.7667 522.575,97.9167 515.417,105.675C510.93,110.625 504.088,114.563 491.905,114.563C483.675,114.563 472.455,112.538 465.825,103.204C461.871,97.5792 461.338,91.3917 461.338,81.7208C461.338,51.4667 461.338,49.2167 460.484,35.1583" style="fill:white;fill-rule:nonzero;"/>
        <path d="M540.533,58.1013C542.454,58.4388 543.846,58.7763 545.875,58.7763C547.908,58.7763 549.296,58.4388 551.113,58.1013C551.008,59.7888 550.688,67.2138 550.579,68.7846C553.358,63.5013 559.238,57.7638 569.388,57.7638C586.917,57.7638 587.771,70.9221 587.771,77.3346C587.771,78.4596 587.342,97.4679 587.342,101.289C587.342,103.426 587.45,111.301 587.667,112.985C586.171,112.535 584.888,112.314 582.212,112.314C579.433,112.314 578.154,112.535 576.55,112.985C577.513,100.951 577.513,88.5804 577.513,86.5554C577.513,75.3096 576.979,64.6221 565.113,64.6221C559.45,64.6221 554.958,67.3221 552.396,72.3846C550.471,76.3221 550.471,89.0304 550.471,94.3179C550.471,103.089 551.008,108.826 551.325,112.985C549.829,112.651 548.121,112.314 545.663,112.314C543.204,112.314 541.6,112.651 540,112.985C540.533,106.126 541.067,98.9263 541.067,82.0596C541.067,74.6346 540.746,65.9763 540.533,58.1013" style="fill:white;fill-rule:nonzero;"/>
        <path d="M603.375,58.5508C604.871,59.0008 606.155,59.2258 608.613,59.2258C611.071,59.2258 612.567,59.0008 614.167,58.5508C613.85,64.7383 613.53,69.7967 613.53,88.13C613.53,93.305 613.634,95.2175 614.275,112.984C612.888,112.538 611.817,112.313 609.038,112.313C606.046,112.313 605.084,112.538 603.48,112.984C603.909,104.438 604.23,93.1925 604.23,84.4175C604.23,71.5967 603.805,64.4008 603.375,58.5508M609.038,46.18C605.938,46.18 603.267,43.48 603.267,40.105C603.267,36.6175 605.938,33.9217 609.038,33.9217C612.246,33.9217 614.917,36.6175 614.917,40.105C614.917,43.48 612.246,46.18 609.038,46.18" style="fill:white;fill-rule:nonzero;"/>
        <path d="M649.223,100.279C649.331,100.391 649.435,100.504 649.544,100.504C649.652,100.504 649.756,100.391 649.865,100.279L651.04,97.6913C652.965,93.5288 661.194,69.2371 664.294,58.0996C665.681,58.4371 667.073,58.7788 668.569,58.7788C670.919,58.7788 672.202,58.3288 673.485,58.0996C666.965,71.7121 656.277,95.3288 651.04,112.987C650.294,112.65 649.119,112.312 647.085,112.312C644.84,112.312 643.881,112.65 643.023,112.987C637.252,94.0913 629.56,75.9829 621.544,58.0996C623.573,58.5496 625.177,58.7788 627.635,58.7788C630.84,58.7788 632.977,58.4371 634.26,58.0996C638.215,70.8121 644.735,89.3663 648.156,97.5788L649.223,100.279Z" style="fill:white;fill-rule:nonzero;"/>
        <path d="M713.245,80.9325C713.245,77.22 713.245,62.2658 700.42,62.2658C691.12,62.2658 686.632,69.6867 685.67,80.9325L713.245,80.9325ZM685.561,85.6575C685.561,88.8075 685.561,95.2158 688.449,100.391C693.365,108.824 700.311,109.162 703.411,109.162C713.886,109.162 718.799,102.416 720.403,100.053L721.69,100.391C721.049,103.541 721.049,105.337 720.94,107.141C716.236,111.862 709.715,114.449 701.061,114.449C684.815,114.449 674.878,103.653 674.878,86.3325C674.878,70.8117 682.999,57.7617 700.528,57.7617C724.357,57.7617 724.036,79.5825 723.932,85.6575L685.561,85.6575Z" style="fill:white;fill-rule:nonzero;"/>
        <path d="M764.439,68.7867C763.047,67.9992 761.764,67.3242 758.88,67.3242C752.785,67.3242 749.472,71.5992 748.405,73.7325C746.91,77.22 746.697,79.695 746.697,93.5283C746.697,94.6533 746.697,98.4783 746.805,100.841C747.23,108.716 747.23,109.499 747.339,112.987C745.735,112.537 744.347,112.312 741.564,112.312C739.001,112.312 737.826,112.537 736.226,112.987C736.972,105.678 737.397,101.853 737.397,84.3075C737.397,71.5992 736.972,65.4117 736.543,58.1033C738.143,58.5492 739.643,58.7783 741.993,58.7783C744.347,58.7783 745.735,58.5492 747.447,58.1033C746.589,64.2867 746.589,68.7867 746.589,70.8117C748.405,66.3117 753.426,56.6367 765.935,57.7617C765.505,59.4533 764.972,61.6992 764.972,65.0742C764.972,65.7492 764.972,66.4242 765.189,68.2242L764.439,68.7867Z" style="fill:white;fill-rule:nonzero;"/>
        <path d="M800.881,70.8108C800.447,69.1233 799.81,66.3108 796.71,64.0608C794.468,62.3775 791.472,62.1483 789.764,62.1483C783.248,62.1483 779.822,65.7483 779.822,70.5858C779.822,77.1108 786.131,79.4733 789.868,80.4817C799.385,83.0692 807.077,85.2067 807.077,96.4525C807.077,105.003 801.414,114.561 786.556,114.561C777.898,114.561 771.918,110.74 770.739,109.84C772.131,107.14 772.985,102.303 773.193,100.84L774.481,100.503C775.231,102.415 776.298,105.453 780.252,107.928C782.923,109.615 785.702,110.061 788.056,110.061C793.614,110.061 798.848,107.253 798.848,100.84C798.848,94.4275 795.218,93.1942 783.993,89.3692C779.398,87.7942 771.806,84.3067 771.806,74.4108C771.806,67.9983 775.548,57.6525 790.298,57.6525C797.673,57.6525 801.948,60.015 804.406,61.3608C803.339,64.29 802.589,66.9858 802.268,70.8108L800.881,70.8108Z" style="fill:white;fill-rule:nonzero;"/>
        <path d="M819.476,58.5508C820.968,59.0008 822.251,59.2258 824.71,59.2258C827.168,59.2258 828.668,59.0008 830.268,58.5508C829.951,64.7383 829.626,69.7967 829.626,88.13C829.626,93.305 829.73,95.2175 830.376,112.984C828.985,112.538 827.918,112.313 825.143,112.313C822.147,112.313 821.185,112.538 819.58,112.984C820.005,104.438 820.33,93.1925 820.33,84.4175C820.33,71.5967 819.901,64.4008 819.476,58.5508M825.143,46.18C822.039,46.18 819.368,43.48 819.368,40.105C819.368,36.6175 822.039,33.9217 825.143,33.9217C828.347,33.9217 831.018,36.6175 831.018,40.105C831.018,43.48 828.347,46.18 825.143,46.18" style="fill:white;fill-rule:nonzero;"/>
        <path d="M848.222,64.5121C844.805,64.5121 844.159,64.6246 839.676,64.9621C839.784,64.1746 839.888,63.3871 839.888,62.1496C839.888,61.0246 839.784,60.2413 839.676,59.3371C840.53,59.4538 841.705,59.5663 843.097,59.6746C844.488,59.7871 846.197,59.9038 848.222,59.9038C848.222,55.9663 848.222,53.2663 848.009,47.4163C851.005,46.8538 856.88,43.4829 858.913,42.2413C858.38,51.5788 858.38,52.4788 858.168,59.9038C862.122,59.9038 866.067,59.6746 869.705,59.3371C869.601,60.2413 869.492,60.9121 869.492,62.1496C869.492,63.3871 869.601,64.0621 869.705,64.8496C867.038,64.7371 862.547,64.5121 858.168,64.5121C857.734,74.7496 857.63,85.0954 857.63,95.3288C857.63,104.441 859.022,109.387 865.109,109.387C866.067,109.387 868.638,108.937 870.022,108.712C869.813,109.95 869.813,110.4 870.022,111.862C867.567,113.325 863.401,114 860.942,114C854.855,114 851.322,110.512 849.509,107.25C848.655,105.675 848.009,103.762 848.009,96.6788C848.009,94.8788 848.009,92.8538 848.222,82.2829L848.222,64.5121Z" style="fill:white;fill-rule:nonzero;"/>
        <path d="M889.05,103.314C885.842,95.3267 880.821,82.6183 877.617,74.635C874.517,66.6517 873.871,65.0767 870.667,58.1017C872.48,58.5517 874.084,58.7767 877.396,58.7767C879.75,58.7767 881.034,58.7767 883.175,58.1017C884.134,61.1392 891.075,81.61 896.53,95.4433C897.28,97.3517 898.134,99.2642 898.775,99.2642C899.946,99.2642 908.817,76.435 913.955,58.1017C915.125,58.4392 916.73,58.7767 918.655,58.7767C920.684,58.7767 922.075,58.4392 922.93,58.1017C921.009,61.2517 920.038,63.385 911.6,82.8433C910.421,85.5433 909.25,88.2433 907.963,90.9433C900.696,107.589 893.005,125.135 888.3,141.893C887.555,141.556 886.163,141.218 884.559,141.218C883.175,141.218 881.675,141.443 879.75,141.893C884.45,132.668 889.05,123.673 893.321,114.448L889.05,103.314Z" style="fill:white;fill-rule:nonzero;"/>
        <path d="M483.248,166.671L472.027,194.563L494.79,194.563L483.248,166.671ZM469.89,200.188C467.752,205.363 463.477,215.371 459.948,229.654C458.669,229.429 457.598,228.979 455.565,228.979C453.535,228.979 452.256,229.429 450.865,229.654C460.377,207.833 476.194,171.171 483.781,150.925C484.635,151.038 485.277,151.263 486.456,151.263C487.415,151.263 487.948,151.15 488.806,150.925C497.035,174.546 520.656,229.204 520.869,229.654C519.052,229.317 517.235,228.979 514.565,228.979C511.785,228.979 509.752,229.317 507.723,229.654C503.981,216.158 499.598,206.371 496.927,200.188L469.89,200.188Z" style="fill:white;fill-rule:nonzero;"/>
        <path d="M561.908,219.757C563.829,217.057 566.291,213.007 566.291,201.874C566.291,197.374 565.97,192.761 563.937,188.715C560.412,181.74 555.175,179.828 550.47,179.828C535.187,179.828 535.187,198.724 535.187,202.436C535.187,219.42 542.883,225.603 549.833,225.603C555.708,225.603 559.558,223.132 561.908,219.757M548.55,174.095C558.595,174.095 564.258,179.94 565.97,184.553C566.075,171.845 566.075,157.561 565.541,146.653C567.037,146.99 568.32,147.328 570.887,147.328C573.45,147.328 575.054,146.99 576.762,146.653C576.016,162.395 575.695,178.257 575.695,193.999C575.695,205.586 575.8,217.957 576.016,229.653C574.52,229.315 573.345,228.978 570.991,228.978C568.641,228.978 567.25,229.315 565.754,229.653C566.075,225.49 566.075,222.12 566.075,220.545C562.55,227.403 555.391,231.228 547.908,231.228C537.112,231.228 524.179,222.907 524.179,202.999C524.179,185.228 534.55,174.095 548.55,174.095" style="fill:white;fill-rule:nonzero;"/>
        <path d="M610.319,216.945C610.428,217.058 610.532,217.17 610.64,217.17C610.748,217.17 610.852,217.058 610.961,216.945L612.136,214.358C614.061,210.195 622.29,185.904 625.39,174.766C626.777,175.104 628.169,175.445 629.665,175.445C632.015,175.445 633.298,174.995 634.582,174.766C628.061,188.379 617.373,211.995 612.136,229.654C611.39,229.316 610.215,228.979 608.182,228.979C605.936,228.979 604.977,229.316 604.119,229.654C598.348,210.758 590.657,192.65 582.64,174.766C584.669,175.216 586.273,175.445 588.732,175.445C591.936,175.445 594.073,175.104 595.357,174.766C599.311,187.479 605.832,206.033 609.253,214.245L610.319,216.945Z" style="fill:white;fill-rule:nonzero;"/>
        <path d="M667.287,201.536C648.904,204.461 646.875,209.073 646.875,215.144C646.875,222.457 652.216,224.594 655.958,224.594C661.408,224.594 667.287,220.094 667.287,213.907L667.287,201.536ZM640.462,188.49L640.887,181.178C644.2,178.365 649.437,174.319 658.204,174.319C662.37,174.319 668.245,175.219 672.525,179.382C674.983,181.853 676.908,185.115 676.908,191.978C676.908,195.236 676.479,209.294 676.479,212.219C676.479,222.119 676.479,225.382 680.433,225.382C681.712,225.382 682.57,225.044 683.104,224.815L683.212,227.965C680.858,229.203 678.508,230.44 675.516,230.44C671.987,230.44 668.57,228.19 667.391,223.132C664.079,226.728 659.591,231.003 651.254,231.003C640.245,231.003 636.508,222.232 636.508,216.044C636.508,204.123 645.591,201.986 654.25,199.961L663.545,197.823C666.537,197.036 667.5,195.573 667.5,192.423C667.5,184.778 662.479,180.169 655.529,180.169C646.658,180.169 644.308,186.128 643.345,188.49L640.462,188.49Z" style="fill:white;fill-rule:nonzero;"/>
        <path d="M692.295,174.768C694.216,175.105 695.608,175.443 697.637,175.443C699.67,175.443 701.058,175.105 702.875,174.768C702.77,176.455 702.45,183.88 702.341,185.451C705.12,180.168 711,174.43 721.154,174.43C738.679,174.43 739.533,187.589 739.533,194.001C739.533,195.126 739.104,214.135 739.104,217.955C739.104,220.093 739.212,227.968 739.429,229.651C737.933,229.201 736.65,228.98 733.979,228.98C731.195,228.98 729.916,229.201 728.316,229.651C729.275,217.618 729.275,205.247 729.275,203.222C729.275,191.976 728.737,181.289 716.875,181.289C711.212,181.289 706.72,183.989 704.158,189.051C702.233,192.989 702.233,205.697 702.233,210.985C702.233,219.755 702.77,225.493 703.087,229.651C701.591,229.318 699.883,228.98 697.425,228.98C694.966,228.98 693.362,229.318 691.762,229.651C692.295,222.793 692.829,215.593 692.829,198.726C692.829,191.301 692.508,182.643 692.295,174.768" style="fill:white;fill-rule:nonzero;"/>
        <path d="M795.965,220.207C795.003,223.244 794.89,225.153 794.786,226.728C791.578,228.978 786.02,231.115 778.97,231.115C758.661,231.115 750.645,217.057 750.645,202.773C750.645,185.565 761.228,174.207 778.865,174.207C785.165,174.207 791.157,175.444 796.495,178.707C794.89,182.978 794.47,186.128 794.145,188.265L792.865,188.265C789.765,179.94 783.674,178.932 779.824,178.932C767.961,178.932 761.761,187.815 761.761,201.873C761.761,222.569 774.27,225.94 780.465,225.94C784.849,225.94 791.157,224.257 795.003,219.869L795.965,220.207Z" style="fill:white;fill-rule:nonzero;"/>
        <path d="M840.1,197.599C840.1,193.887 840.1,178.933 827.275,178.933C817.979,178.933 813.488,186.353 812.525,197.599L840.1,197.599ZM812.421,202.324C812.421,205.474 812.421,211.883 815.304,217.058C820.225,225.491 827.167,225.828 830.271,225.828C840.742,225.828 845.658,219.083 847.263,216.72L848.546,217.058C847.904,220.208 847.904,222.003 847.8,223.808C843.096,228.528 836.575,231.116 827.917,231.116C811.671,231.116 801.733,220.32 801.733,202.999C801.733,187.478 809.858,174.428 827.388,174.428C851.217,174.428 850.9,196.249 850.783,202.324L812.421,202.324Z" style="fill:white;fill-rule:nonzero;"/>
        <path d="M875.053,186.578C872.382,190.849 872.165,195.912 872.165,207.387C872.165,213.008 872.27,221.108 873.124,229.653C870.99,229.203 869.39,228.978 867.574,228.978C865.753,228.978 864.253,229.203 862.015,229.653C862.545,213.008 862.649,211.095 862.649,203.562C862.649,195.349 862.545,193.328 861.911,174.77C863.511,174.995 865.003,175.445 867.145,175.445C869.178,175.445 870.99,174.995 872.595,174.77C872.382,176.233 871.953,180.053 871.953,184.553C876.761,176.453 883.07,174.428 888.407,174.428C895.674,174.428 901.557,177.358 904.332,184.553C908.499,177.128 915.882,174.428 921.97,174.428C925.07,174.428 931.799,175.216 935.753,180.278C938.645,183.991 938.961,188.266 938.961,191.416C938.961,192.541 938.749,207.387 938.749,210.308C938.749,216.833 939.065,223.241 939.39,229.653C937.145,229.203 935.545,228.978 933.728,228.978C931.799,228.978 930.09,229.203 928.274,229.653C929.236,218.745 929.236,212.895 929.236,205.587C929.236,190.741 928.811,188.828 927.103,185.791C924.857,181.853 921.115,181.066 918.34,181.066C905.936,181.066 905.407,194.449 905.407,201.649C905.407,210.195 905.832,220.77 906.261,229.653C904.553,229.203 903.478,228.978 900.486,228.978C897.603,228.978 896.536,229.203 895.145,229.653C895.79,222.453 895.999,213.458 895.999,205.587C895.999,201.312 895.79,190.291 894.186,186.578C892.045,181.966 887.774,181.066 884.674,181.066C880.928,181.066 877.615,182.416 875.053,186.578" style="fill:white;fill-rule:nonzero;"/>
        <path d="M989.189,197.599C989.189,193.887 989.189,178.933 976.372,178.933C967.068,178.933 962.576,186.353 961.618,197.599L989.189,197.599ZM961.51,202.324C961.51,205.474 961.51,211.883 964.401,217.058C969.314,225.491 976.255,225.828 979.36,225.828C989.83,225.828 994.747,219.083 996.351,216.72L997.635,217.058C996.993,220.208 996.993,222.003 996.889,223.808C992.185,228.528 985.664,231.116 977.005,231.116C960.764,231.116 950.826,220.32 950.826,202.999C950.826,187.478 958.947,174.428 976.476,174.428C1000.31,174.428 999.989,196.249 999.88,202.324L961.51,202.324Z" style="fill:white;fill-rule:nonzero;"/>
        <path d="M1011.53,174.768C1013.46,175.105 1014.84,175.443 1016.87,175.443C1018.9,175.443 1020.29,175.105 1022.11,174.768C1022,176.455 1021.69,183.88 1021.58,185.451C1024.35,180.168 1030.23,174.43 1040.39,174.43C1057.91,174.43 1058.77,187.589 1058.77,194.001C1058.77,195.126 1058.34,214.135 1058.34,217.955C1058.34,220.093 1058.44,227.968 1058.66,229.651C1057.16,229.201 1055.88,228.98 1053.21,228.98C1050.44,228.98 1049.15,229.201 1047.55,229.651C1048.51,217.618 1048.51,205.247 1048.51,203.222C1048.51,191.976 1047.97,181.289 1036.11,181.289C1030.45,181.289 1025.96,183.989 1023.39,189.051C1021.47,192.989 1021.47,205.697 1021.47,210.985C1021.47,219.755 1022,225.493 1022.33,229.651C1020.83,229.318 1019.12,228.98 1016.66,228.98C1014.2,228.98 1012.6,229.318 1011,229.651C1011.53,222.793 1012.06,215.593 1012.06,198.726C1012.06,191.301 1011.74,182.643 1011.53,174.768" style="fill:white;fill-rule:nonzero;"/>
        <path d="M1076.08,181.179C1072.66,181.179 1072.02,181.291 1067.52,181.629C1067.64,180.841 1067.75,180.054 1067.75,178.816C1067.75,177.691 1067.64,176.908 1067.52,176.004C1068.39,176.12 1069.56,176.233 1070.95,176.341C1072.34,176.454 1074.05,176.57 1076.08,176.57C1076.08,172.633 1076.08,169.933 1075.87,164.083C1078.86,163.52 1084.74,160.15 1086.76,158.908C1086.24,168.245 1086.24,169.145 1086.02,176.57C1089.97,176.57 1093.92,176.341 1097.56,176.004C1097.46,176.908 1097.35,177.579 1097.35,178.816C1097.35,180.054 1097.46,180.729 1097.56,181.516C1094.89,181.404 1090.4,181.179 1086.02,181.179C1085.59,191.416 1085.49,201.762 1085.49,211.995C1085.49,221.108 1086.87,226.054 1092.97,226.054C1093.92,226.054 1096.49,225.604 1097.88,225.379C1097.67,226.616 1097.67,227.066 1097.88,228.529C1095.42,229.991 1091.26,230.666 1088.8,230.666C1082.7,230.666 1079.18,227.179 1077.37,223.916C1076.51,222.341 1075.87,220.429 1075.87,213.345C1075.87,211.545 1075.87,209.52 1076.08,198.95L1076.08,181.179Z" style="fill:white;fill-rule:nonzero;"/>
        <path d="M461.029,285.935L461.029,284.898C461.029,280.169 460.963,277.281 459.113,275.802C457.338,274.398 454.971,273.652 451.867,273.502L451.867,272.173C456.233,272.248 460.588,272.248 464.95,272.248C469.4,272.248 473.833,272.248 478.271,272.173L478.271,273.502C469.838,273.727 467.992,276.319 467.992,284.823L467.992,303.169C467.992,309.015 468.513,313.223 471.542,316.481C474.35,319.515 479.008,321.365 484.854,321.365C491.95,321.365 496.321,318.923 499.054,313.223C500.683,309.756 500.904,303.456 500.904,294.223C500.904,285.565 500.754,280.015 498.904,277.281C497.125,274.694 494.1,273.585 489.517,273.502L489.517,272.173C493.213,272.248 496.833,272.248 500.525,272.248C504.225,272.248 507.933,272.248 511.554,272.173L511.554,273.502L511.408,273.502C504.008,273.502 503.863,279.869 503.708,293.777C503.646,302.352 503.938,309.081 501.642,314.335C498.679,321.21 491.729,324.906 481.379,324.906C473.092,324.906 467.246,322.619 464.067,318.327C461.188,314.335 461.029,309.815 461.029,303.906L461.029,285.935Z" style="fill:white;fill-rule:nonzero;"/>
        <path d="M509.23,322.715C516.072,322.415 517.143,318.548 517.143,308.253L517.143,296.828C517.143,295.34 517.201,294.028 517.201,292.89C517.201,289.919 516.91,287.769 514.701,285.761C513.214,284.328 511.072,283.49 508.451,283.311L508.451,282.244C510.36,282.244 512.201,282.303 513.93,282.303C515.655,282.303 517.322,282.244 518.868,282.244L548.63,314.14L548.63,300.394C548.63,292.953 548.572,288.253 546.73,285.936C545.476,284.394 543.268,283.548 540.06,283.311L540.06,282.244C543.03,282.303 545.951,282.303 548.689,282.303C551.489,282.303 554.222,282.303 556.776,282.244L556.776,283.311L556.305,283.311C551.668,283.311 550.601,287.898 550.601,298.365L550.601,311.111C550.601,315.928 550.647,320.698 550.893,325.273L550.535,325.273C546.905,321.169 544.814,318.79 544.285,318.19L519.105,291.473L519.105,303.253C519.105,311.653 519.172,316.944 520.601,319.261C521.668,321.053 523.989,322.003 527.797,322.715L527.797,323.732C524.639,323.669 521.547,323.611 518.455,323.611C515.355,323.611 512.264,323.669 509.23,323.732L509.23,322.715Z" style="fill:white;fill-rule:nonzero;"/>
        <path d="M558.84,322.715C565.873,322.29 566.577,320.032 566.577,313.669L566.577,292.294C566.577,285.936 565.873,283.736 558.84,283.311L558.84,282.244C562.482,282.244 566.044,282.303 569.619,282.303C573.132,282.303 576.648,282.244 580.094,282.244L580.094,283.311C573.19,283.736 572.357,285.873 572.357,292.294L572.357,313.669C572.357,320.103 573.19,322.365 580.094,322.715L580.094,323.732C576.523,323.669 572.957,323.611 569.44,323.611C565.873,323.611 562.361,323.669 558.84,323.732L558.84,322.715Z" style="fill:white;fill-rule:nonzero;"/>
        <path d="M589.313,291.823C587.109,286.403 585.388,283.49 580.859,283.311L580.859,282.244C583.892,282.303 586.996,282.303 590.209,282.303C593.417,282.303 596.75,282.303 600.146,282.244L600.146,283.311C596.1,283.378 594.13,284.444 594.13,286.653C594.13,287.84 595.084,291.411 597.467,297.244L605.505,316.765L613.48,297.244C615.5,292.294 616.567,288.965 616.567,287.123C616.567,284.507 614.546,283.548 609.9,283.311L609.9,282.244C613.005,282.303 615.917,282.303 618.771,282.303C621.638,282.303 624.43,282.303 627.046,282.244L627.046,283.311L626.746,283.311C621.817,283.311 619.434,287.957 615.68,297.003L608.18,315.161C607.7,316.29 606.334,319.861 603.955,325.932L603.3,325.932L589.313,291.823Z" style="fill:white;fill-rule:nonzero;"/>
        <path d="M627.081,322.715C634.231,321.819 634.935,320.103 634.935,314.444L634.935,291.644C634.935,285.811 633.99,283.548 627.74,283.311L627.74,282.244C633.273,282.303 638.515,282.303 643.456,282.303C649.527,282.303 655.119,282.303 660.235,282.186C659.819,285.336 659.581,288.553 659.402,291.644L658.51,291.644C658.094,285.519 655.36,283.848 648.34,283.848L640.535,283.848L640.535,300.994L646.548,300.994C652.44,300.994 654.94,300.036 655.71,295.223L656.665,295.223C656.494,298.553 656.431,302.003 656.431,305.757L656.431,309.207L655.54,309.207C655.119,304.748 652.56,303.607 646.61,303.607L640.535,303.607L640.535,314.211C640.535,320.282 642.081,322.119 650.235,322.119C657.256,322.119 661.131,318.79 662.506,311.528L663.452,311.653C663.21,316.178 662.444,320.282 661.194,323.853C655.59,323.732 648.931,323.669 641.073,323.669C636.723,323.669 632.085,323.669 627.081,323.732L627.081,322.715Z" style="fill:white;fill-rule:nonzero;"/>
        <path d="M692.837,293.142C692.837,287.3 688.308,283.492 680.041,283.313L680.041,302.954C688.37,302.475 692.837,298.904 692.837,293.142M666.945,322.717C674.149,322.242 674.503,319.8 674.503,312.6L674.503,292.663C674.503,288.667 674.324,286.283 673.02,285.163C671.883,284.204 670.099,283.733 667.658,283.313L667.658,282.246C677.066,282.188 682.362,282.004 683.549,282.004C693.845,282.004 698.908,285.279 698.908,292.363C698.908,296.708 696.466,300.033 691.583,302.125C698.437,315.158 704.562,322.292 712.483,323.483L712.299,324.496C707.241,324.267 703.374,324.204 700.395,322.896C697.595,321.642 695.578,319.088 693.137,315.396C690.283,311.054 688.791,307.725 687.603,306.113C686.703,304.921 685.22,304.567 682.957,304.325L680.041,303.975L680.041,312.6C680.041,319.738 680.874,322.179 688.678,322.717L688.678,323.733C684.92,323.667 681.166,323.608 677.537,323.608C673.974,323.608 670.391,323.667 666.945,323.733L666.945,322.717Z" style="fill:white;fill-rule:nonzero;"/>
        <path d="M711.098,311.175C713.24,318.85 717.586,322.838 723.473,322.838C728.232,322.838 731.444,319.567 731.444,315.513C731.444,311.955 729.423,308.971 725.373,306.584L720.611,303.788C715.552,300.817 713.115,297.363 713.115,293.021C713.115,286.534 718.594,281.413 726.448,281.413C729.961,281.413 733.053,282.3 736.027,284.03C735.665,286.763 735.494,289.796 735.377,293.142L734.307,293.142C733.411,286.405 730.498,283.009 725.794,283.009C721.507,283.009 718.348,286.105 718.348,290.334C718.348,293.075 720.207,295.93 723.532,297.959L730.436,302.125C735.14,304.984 737.344,308.313 737.344,312.771C737.344,319.509 731.09,324.75 722.882,324.75C718.652,324.75 714.661,323.667 711.448,321.525C710.732,318.192 710.257,314.734 710.019,311.234L711.098,311.175Z" style="fill:white;fill-rule:nonzero;"/>
        <path d="M740.542,322.715C747.562,322.29 748.275,320.032 748.275,313.669L748.275,292.294C748.275,285.936 747.562,283.736 740.542,283.311L740.542,282.244C744.171,282.244 747.742,282.303 751.308,282.303C754.825,282.303 758.337,282.244 761.792,282.244L761.792,283.311C754.879,283.736 754.042,285.873 754.042,292.294L754.042,313.669C754.042,320.103 754.879,322.365 761.792,322.715L761.792,323.732C758.217,323.669 754.646,323.611 751.138,323.611C747.562,323.611 744.058,323.669 740.542,323.732L740.542,322.715Z" style="fill:white;fill-rule:nonzero;"/>
        <path d="M786.415,320.282C787.724,321.528 789.865,322.245 792.911,322.715L792.911,323.732C789.274,323.665 785.586,323.611 781.957,323.611C778.261,323.611 774.632,323.665 770.945,323.732L770.945,322.715C773.974,322.245 776.178,321.528 777.486,320.282C778.92,318.907 779.099,316.049 779.099,311.29L779.099,284.261L774.99,284.261C767.965,284.261 764.753,285.936 763.14,291.995L762.132,291.824L763.261,280.345L763.978,280.345L765.761,282.245C771.295,282.245 776.715,282.303 782.136,282.303C787.482,282.303 792.853,282.245 798.149,282.245L800.103,280.345L800.582,280.345L801.595,291.945L800.64,292.124C799.215,286.353 795.936,284.261 789.274,284.261L784.811,284.261L784.811,311.29C784.811,316.049 784.99,318.907 786.415,320.282" style="fill:white;fill-rule:nonzero;"/>
        <path d="M810.032,322.715C815.624,322.244 817.828,320.103 817.828,315.036L817.828,310.811L817.828,309.507C817.828,308.023 817.649,306.236 816.215,303.078L810.628,290.815C808.486,286.053 806.336,283.736 801.765,283.311L801.765,282.244C804.32,282.303 806.995,282.303 809.795,282.303C812.586,282.303 815.499,282.303 818.545,282.244L818.545,283.311C815.982,283.436 814.67,284.207 814.67,285.573C814.67,286.403 815.036,287.598 815.678,289.023L822.107,303.19C827.224,294.382 830.149,288.965 830.149,286.353C830.149,284.507 828.536,283.311 825.745,283.311L825.507,283.311L825.507,282.244C828.245,282.303 830.865,282.303 833.482,282.303C836.04,282.303 838.595,282.303 841.103,282.244L841.103,283.311L840.62,283.311C834.549,283.311 832.532,287.728 828.245,295.632C826.036,299.74 824.62,302.419 824.078,303.728C823.54,305.044 823.482,306.286 823.482,307.536L823.482,315.219C823.482,320.103 825.745,322.178 831.636,322.715L831.636,323.732C828.12,323.669 824.557,323.611 820.928,323.611C817.349,323.611 813.728,323.669 810.032,323.732L810.032,322.715Z" style="fill:white;fill-rule:nonzero;"/>
        <path d="M863.554,303.55C861.095,308.083 859.754,313.221 859.754,318.029C859.754,321.158 860.82,322.838 862.333,322.838C863.895,322.838 865.8,320.929 867.591,317.133C869.82,312.321 870.879,307.517 870.879,303.608C870.879,300.425 870.041,298.8 868.429,298.8C866.962,298.8 865.295,300.367 863.554,303.55M859.65,303.5C862.383,299.471 865.733,297.404 869.145,297.404C873.175,297.404 875.183,299.921 875.183,304.946C875.183,309.867 873.62,314.617 870.545,318.754C867.808,322.388 864.783,324.233 861.608,324.233C857.637,324.233 855.458,321.55 855.458,316.346C855.458,311.942 856.858,307.629 859.65,303.5" style="fill:white;fill-rule:nonzero;"/>
        <path d="M875.24,335.911C878.586,335.911 879.144,328.811 881.711,314.84L883.957,302.657L879.319,302.657L879.586,301.265L884.623,299.807C887.136,289.023 893.169,283.161 899.769,283.161C903.178,283.161 905.303,284.828 905.303,287.403C905.303,289.303 904.073,290.757 901.665,291.703L901.161,291.257C901.223,290.698 901.273,290.198 901.273,289.69C901.273,286.619 899.882,284.998 897.532,284.998C893.903,284.998 891.328,290.023 888.865,300.136L896.578,299.978L895.969,302.436L888.423,302.369L884.29,322.894C883.336,327.594 882.107,331.165 880.544,333.565C878.423,336.811 874.223,338.936 871.936,338.936C869.64,338.936 868.023,337.648 868.023,336.078C868.023,334.907 868.582,333.961 869.698,332.957C871.936,334.848 873.603,335.911 875.24,335.911" style="fill:white;fill-rule:nonzero;"/>
        <path d="M942.859,299.034L935.159,278.534L927.771,299.034L942.859,299.034ZM910.013,322.467C912.975,321.959 914.971,321.209 916.45,319.584C918.225,317.588 920.888,309.971 925.775,296.959L934.209,274.617L933.909,273.134C935.975,272.471 937.53,271.138 939.155,269.071L955.505,313.221C957.8,319.367 959.646,322.242 965.271,322.467L965.271,323.734C961.642,323.655 957.946,323.588 954.242,323.588C950.621,323.588 946.93,323.655 943.234,323.734L943.234,322.467C947.067,322.175 949.142,320.396 949.142,318.18C949.142,316.921 948.775,315.288 948.034,313.155L944.113,302.209L926.592,302.209L925.175,306.421C923.33,311.892 922.367,315.592 922.367,317.738C922.367,320.913 925.1,322.325 930.796,322.467L930.796,323.734C927.03,323.655 923.33,323.588 919.855,323.588C916.45,323.588 913.121,323.655 910.013,323.734L910.013,322.467Z" style="fill:white;fill-rule:nonzero;"/>
        <path d="M964.115,322.715C971.253,322.178 971.845,319.803 971.845,312.598L971.845,292.423C971.845,285.936 971.015,283.961 964.115,283.311L964.115,282.244C967.499,282.303 970.961,282.303 974.411,282.303C977.861,282.303 981.378,282.303 984.932,282.244L984.932,283.311C978.282,283.848 977.274,285.936 977.274,292.423L977.274,312.598C977.274,316.578 977.274,319.261 978.04,320.748C978.632,321.894 980.895,322.003 985.061,322.003C988.928,322.003 991.915,321.94 994.282,320.453C996.853,318.848 998.815,316.107 1000.96,312.128L1001.74,312.478L998.345,323.782C993.215,323.732 987.203,323.669 980.245,323.669C975.361,323.669 969.94,323.732 964.115,323.732L964.115,322.715Z" style="fill:white;fill-rule:nonzero;"/>
        <path d="M1025.7,303.847L1019.5,287.364L1013.55,303.847L1025.7,303.847ZM999.263,322.714C1001.65,322.293 1003.26,321.705 1004.44,320.397C1005.88,318.789 1008.02,312.651 1011.95,302.185L1018.73,284.205L1018.5,283.01C1020.16,282.48 1021.4,281.414 1022.73,279.743L1035.88,315.276C1037.72,320.214 1039.21,322.539 1043.72,322.714L1043.72,323.73C1040.82,323.668 1037.84,323.61 1034.87,323.61C1031.95,323.61 1028.97,323.668 1026,323.73L1026,322.714C1029.09,322.48 1030.75,321.051 1030.75,319.26C1030.75,318.255 1030.47,316.947 1029.86,315.218L1026.7,306.414L1012.59,306.414L1011.46,309.793C1009.98,314.21 1009.21,317.18 1009.21,318.905C1009.21,321.468 1011.41,322.593 1015.99,322.714L1015.99,323.73C1012.95,323.668 1009.98,323.61 1007.18,323.61C1004.44,323.61 1001.76,323.668 999.263,323.73L999.263,322.714Z" style="fill:white;fill-rule:nonzero;"/>
        <path d="M1043.35,311.175C1045.5,318.85 1049.84,322.838 1055.73,322.838C1060.5,322.838 1063.72,319.567 1063.72,315.513C1063.72,311.955 1061.68,308.971 1057.64,306.584L1052.88,303.788C1047.82,300.817 1045.37,297.363 1045.37,293.021C1045.37,286.534 1050.85,281.413 1058.71,281.413C1062.22,281.413 1065.32,282.3 1068.29,284.03C1067.94,286.763 1067.76,289.796 1067.64,293.142L1066.56,293.142C1065.68,286.405 1062.76,283.009 1058.05,283.009C1053.77,283.009 1050.61,286.105 1050.61,290.334C1050.61,293.075 1052.46,295.93 1055.79,297.959L1062.71,302.125C1067.4,304.984 1069.61,308.313 1069.61,312.771C1069.61,319.509 1063.35,324.75 1055.14,324.75C1050.91,324.75 1046.93,323.667 1043.71,321.525C1043,318.192 1042.53,314.734 1042.28,311.234L1043.35,311.175Z" style="fill:white;fill-rule:nonzero;"/>
        <path d="M1093.58,295.339C1097.99,290.522 1100.78,287.726 1100.78,285.639C1100.78,283.964 1099.65,283.31 1097.15,283.31L1097.15,282.243C1099.76,282.301 1102.38,282.301 1105.06,282.301C1107.68,282.301 1110.36,282.301 1113.03,282.243L1113.03,283.31L1112.67,283.31C1107.38,283.31 1103.27,287.539 1097.03,294.143L1091.14,300.343L1102.8,313.493C1107.61,318.905 1112.38,322.243 1116.9,323.435L1116.67,324.264C1112.2,323.968 1108.75,323.551 1106.31,322.839C1103.4,322.001 1101.73,320.035 1099.76,317.889L1086.32,303.251L1093.58,295.339ZM1072.57,322.714C1075.3,322.414 1077.2,321.893 1078.4,320.697C1079.88,319.21 1079.88,316.647 1079.88,312.476L1079.88,293.547C1079.88,286.76 1079.77,284.093 1073.17,283.31L1073.17,282.243C1076.26,282.301 1079.34,282.301 1082.5,282.301C1085.66,282.301 1088.81,282.301 1091.96,282.243L1091.96,283.31C1085.53,283.618 1085.42,286.28 1085.42,293.493L1085.42,312.476C1085.42,316.822 1085.53,319.51 1087.27,320.872C1088.76,322.072 1090.83,322.539 1093.75,322.714L1093.75,323.73C1090.18,323.668 1086.55,323.61 1083.05,323.61C1079.46,323.61 1076.02,323.668 1072.57,323.73L1072.57,322.714Z" style="fill:white;fill-rule:nonzero;"/>
        <path d="M1139.16,303.847L1132.97,287.364L1127.03,303.847L1139.16,303.847ZM1112.74,322.714C1115.12,322.293 1116.73,321.705 1117.91,320.397C1119.35,318.789 1121.5,312.651 1125.42,302.185L1132.2,284.205L1131.97,283.01C1133.64,282.48 1134.87,281.414 1136.19,279.743L1149.34,315.276C1151.19,320.214 1152.67,322.539 1157.2,322.714L1157.2,323.73C1154.29,323.668 1151.31,323.61 1148.33,323.61C1145.42,323.61 1142.44,323.668 1139.46,323.73L1139.46,322.714C1142.56,322.48 1144.23,321.051 1144.23,319.26C1144.23,318.255 1143.94,316.947 1143.34,315.218L1140.16,306.414L1126.06,306.414L1124.93,309.793C1123.45,314.21 1122.69,317.18 1122.69,318.905C1122.69,321.468 1124.89,322.593 1129.46,322.714L1129.46,323.73C1126.43,323.668 1123.45,323.61 1120.65,323.61C1117.91,323.61 1115.24,323.668 1112.74,323.73L1112.74,322.714Z" style="fill:white;fill-rule:nonzero;"/>
        <path d="M1203.73,299.034L1196.04,278.534L1188.64,299.034L1203.73,299.034ZM1170.89,322.467C1173.86,321.959 1175.85,321.209 1177.34,319.584C1179.1,317.588 1181.77,309.971 1186.65,296.959L1195.1,274.617L1194.78,273.134C1196.86,272.471 1198.41,271.138 1200.04,269.071L1216.38,313.221C1218.69,319.367 1220.53,322.242 1226.14,322.467L1226.14,323.734C1222.52,323.655 1218.83,323.588 1215.12,323.588C1211.51,323.588 1207.81,323.655 1204.12,323.734L1204.12,322.467C1207.95,322.175 1210.01,320.396 1210.01,318.18C1210.01,316.921 1209.65,315.288 1208.91,313.155L1204.99,302.209L1187.47,302.209L1186.06,306.421C1184.21,311.892 1183.24,315.592 1183.24,317.738C1183.24,320.913 1185.98,322.325 1191.68,322.467L1191.68,323.734C1187.92,323.655 1184.21,323.588 1180.73,323.588C1177.34,323.588 1173.99,323.655 1170.89,323.734L1170.89,322.467Z" style="fill:white;fill-rule:nonzero;"/>
        <path d="M1224.04,322.715C1230.89,322.415 1231.96,318.548 1231.96,308.253L1231.96,296.828C1231.96,295.34 1232.03,294.028 1232.03,292.89C1232.03,289.919 1231.71,287.769 1229.52,285.761C1228.03,284.328 1225.89,283.49 1223.26,283.311L1223.26,282.244C1225.17,282.244 1227.01,282.303 1228.75,282.303C1230.47,282.303 1232.14,282.244 1233.69,282.244L1263.45,314.14L1263.45,300.394C1263.45,292.953 1263.37,288.253 1261.55,285.936C1260.28,284.394 1258.1,283.548 1254.87,283.311L1254.87,282.244C1257.85,282.303 1260.76,282.303 1263.51,282.303C1266.31,282.303 1269.04,282.303 1271.59,282.244L1271.59,283.311L1271.12,283.311C1266.49,283.311 1265.41,287.898 1265.41,298.365L1265.41,311.111C1265.41,315.928 1265.46,320.698 1265.71,325.273L1265.35,325.273C1261.72,321.169 1259.64,318.79 1259.1,318.19L1233.92,291.473L1233.92,303.253C1233.92,311.653 1233.97,316.944 1235.41,319.261C1236.48,321.053 1238.79,322.003 1242.6,322.715L1242.6,323.732C1239.46,323.669 1236.36,323.611 1233.26,323.611C1230.17,323.611 1227.08,323.669 1224.04,323.732L1224.04,322.715Z" style="fill:white;fill-rule:nonzero;"/>
        <path d="M1313.86,311.11C1312.94,315.16 1311.82,318.79 1310.32,322.073C1306.46,323.781 1302.11,324.748 1297.66,324.748C1291.35,324.748 1285.75,322.894 1281.58,319.69C1276.36,315.635 1273.85,310.215 1273.85,303.131C1273.85,296.644 1276.58,290.873 1281.58,286.706C1285.81,283.198 1291.58,281.285 1298.18,281.285C1303.06,281.285 1307.65,282.36 1311.82,284.327L1311.82,294.502L1310.81,294.502C1309.55,286.823 1305.15,282.84 1297.96,282.84C1288.07,282.84 1280.93,290.815 1280.93,302.71C1280.93,308.498 1282.95,313.731 1286.7,317.66C1289.92,321.052 1294.38,322.96 1299.14,322.96C1305.39,322.96 1309.43,319.085 1312.94,310.756L1313.86,311.11Z" style="fill:white;fill-rule:nonzero;"/>
        <path d="M1314.6,283.311L1314.6,282.244C1318.16,282.244 1321.73,282.303 1325.3,282.303C1328.89,282.303 1332.52,282.244 1336.07,282.244L1336.07,283.311C1328.92,283.736 1328.1,285.761 1328.1,292.294L1328.1,300.815L1352.27,300.815L1352.27,292.294C1352.27,285.811 1351.56,283.736 1344.3,283.311L1344.3,282.244C1347.87,282.244 1351.43,282.303 1355.01,282.303C1358.59,282.303 1362.2,282.244 1365.78,282.244L1365.78,283.311C1358.93,283.736 1358.05,285.811 1358.05,292.294L1358.05,313.669C1358.05,320.157 1358.93,322.365 1365.78,322.715L1365.78,323.732C1362.51,323.669 1359.06,323.611 1355.48,323.611C1351.91,323.611 1348.16,323.669 1344.3,323.732L1344.3,322.715C1351.56,322.29 1352.27,320.157 1352.27,313.669L1352.27,303.307L1328.1,303.307L1328.1,313.669C1328.1,320.211 1328.92,322.365 1336.07,322.715L1336.07,323.732C1332.26,323.669 1328.57,323.611 1325.01,323.611C1321.44,323.611 1317.98,323.669 1314.6,323.732L1314.6,322.715C1321.61,322.29 1322.4,320.032 1322.4,313.669L1322.4,292.294C1322.4,285.936 1321.61,283.736 1314.6,283.311" style="fill:white;fill-rule:nonzero;"/>
        <path d="M1391.29,322.715C1400.09,322.715 1406.23,315.511 1406.23,303.848C1406.23,298.669 1404.86,293.857 1402.54,290.336C1399.38,285.573 1395.51,283.244 1390.39,283.244C1381.76,283.244 1375.58,290.457 1375.58,301.94C1375.58,314.386 1382.3,322.715 1391.29,322.715M1391.06,281.532C1404.56,281.532 1413.25,290.219 1413.25,303.378C1413.25,315.99 1404.43,324.498 1390.69,324.498C1377.3,324.498 1368.49,315.99 1368.49,302.778C1368.49,289.919 1377.3,281.532 1391.06,281.532" style="fill:white;fill-rule:nonzero;"/>
        <path d="M1442.87,293.142C1442.87,287.3 1438.35,283.492 1430.08,283.313L1430.08,302.954C1438.43,302.475 1442.87,298.904 1442.87,293.142M1416.98,322.717C1424.18,322.242 1424.54,319.8 1424.54,312.6L1424.54,292.663C1424.54,288.667 1424.35,286.283 1423.04,285.163C1421.92,284.204 1420.15,283.733 1417.7,283.313L1417.7,282.246C1427.1,282.188 1432.4,282.004 1433.6,282.004C1443.88,282.004 1448.95,285.279 1448.95,292.363C1448.95,296.708 1446.5,300.033 1441.63,302.125C1448.48,315.158 1454.6,322.292 1462.52,323.483L1462.33,324.496C1457.28,324.267 1453.4,324.204 1450.43,322.896C1447.64,321.642 1445.62,319.088 1443.17,315.396C1440.31,311.054 1438.82,307.725 1437.63,306.113C1436.74,304.921 1435.26,304.567 1433,304.325L1430.08,303.975L1430.08,312.6C1430.08,319.738 1430.91,322.179 1438.7,322.717L1438.7,323.733C1434.95,323.667 1431.21,323.608 1427.58,323.608C1424,323.608 1420.43,323.667 1416.98,323.733L1416.98,322.717Z" style="fill:white;fill-rule:nonzero;"/>
        <path d="M1482.38,303.847L1476.19,287.364L1470.25,303.847L1482.38,303.847ZM1455.95,322.714C1458.34,322.293 1459.95,321.705 1461.13,320.397C1462.56,318.789 1464.71,312.651 1468.63,302.185L1475.41,284.205L1475.19,283.01C1476.85,282.48 1478.1,281.414 1479.41,279.743L1492.56,315.276C1494.41,320.214 1495.89,322.539 1500.41,322.714L1500.41,323.73C1497.51,323.668 1494.53,323.61 1491.55,323.61C1488.64,323.61 1485.66,323.668 1482.68,323.73L1482.68,322.714C1485.77,322.48 1487.44,321.051 1487.44,319.26C1487.44,318.255 1487.15,316.947 1486.55,315.218L1483.38,306.414L1469.28,306.414L1468.14,309.793C1466.67,314.21 1465.9,317.18 1465.9,318.905C1465.9,321.468 1468.1,322.593 1472.69,322.714L1472.69,323.73C1469.65,323.668 1466.67,323.61 1463.86,323.61C1461.13,323.61 1458.44,323.668 1455.95,323.73L1455.95,322.714Z" style="fill:white;fill-rule:nonzero;"/>
        <path d="M1540.21,320.156C1533.74,323.073 1527.84,324.564 1522.24,324.564C1507.83,324.564 1498.49,316.052 1498.49,303.489C1498.49,297.123 1500.86,291.773 1505.57,287.602C1510.09,283.618 1516.04,281.473 1523.06,281.473C1527.76,281.473 1532.71,282.302 1537.66,283.923C1537.42,287.473 1537.29,291.052 1537.24,294.556L1536.34,294.556C1534.56,287.006 1529.62,282.952 1522.31,282.952C1512.24,282.952 1505.34,290.277 1505.34,301.527C1505.34,307.131 1507.34,312.243 1511.05,316.231C1514.8,320.281 1520.45,322.539 1526.65,322.539C1530.81,322.539 1531.52,321.464 1531.52,317.781L1531.52,312.064C1531.52,307.181 1529.44,305.698 1523.55,305.218L1523.55,304.143C1526.71,304.273 1529.74,304.323 1532.77,304.323C1535.79,304.323 1538.83,304.273 1541.77,304.143L1541.77,305.218C1537.71,305.756 1537.24,307.302 1537.24,311.881L1537.24,319.085L1540.21,319.085L1540.21,320.156Z" style="fill:white;fill-rule:nonzero;"/>
        <path d="M1542.68,322.715C1549.83,321.819 1550.56,320.103 1550.56,314.444L1550.56,291.644C1550.56,285.811 1549.61,283.548 1543.35,283.311L1543.35,282.244C1548.89,282.303 1554.11,282.303 1559.06,282.303C1565.13,282.303 1570.72,282.303 1575.83,282.186C1575.43,285.336 1575.2,288.553 1575.01,291.644L1574.12,291.644C1573.69,285.519 1570.96,283.848 1563.93,283.848L1556.15,283.848L1556.15,300.994L1562.15,300.994C1568.06,300.994 1570.54,300.036 1571.33,295.223L1572.28,295.223C1572.1,298.553 1572.03,302.003 1572.03,305.757L1572.03,309.207L1571.13,309.207C1570.72,304.748 1568.16,303.607 1562.21,303.607L1556.15,303.607L1556.15,314.211C1556.15,320.282 1557.69,322.119 1565.84,322.119C1572.86,322.119 1576.75,318.79 1578.11,311.528L1579.06,311.653C1578.81,316.178 1578.04,320.282 1576.8,323.853C1571.21,323.732 1564.52,323.669 1556.68,323.669C1552.34,323.669 1547.69,323.669 1542.68,323.732L1542.68,322.715Z" style="fill:white;fill-rule:nonzero;"/>
        <path d="M25.1425,336.538L83.9258,336.538C134.505,333.9 185.243,327.975 234.355,315.304C309.243,296 387.755,257.025 416.251,180.792L416.251,20.1833L25.1425,20.1833L25.1425,336.538Z" style="fill:rgb(0,88,61);fill-rule:nonzero;"/>
        <path d="M51.7354,67.34C55.6104,67.9025 59.3021,68.4525 62.6229,68.4525C66.6813,68.4525 70.1896,67.9025 73.3271,67.34C71.6688,91.5233 71.6688,126.582 71.6688,130.453C71.6688,153.707 72.4021,166.619 79.7854,175.661C85.6896,183.044 97.6854,187.657 109.31,187.657C114.477,187.657 139.577,186.548 145.66,160.711C148.615,148.161 148.798,127.323 148.798,122.698C148.798,115.69 148.065,79.34 146.215,67.34C148.615,67.9025 150.644,68.4525 154.894,68.4525C158.952,68.4525 160.798,67.9025 163.01,67.34C160.61,84.1317 159.873,105.169 159.873,132.49C159.873,150.386 158.952,170.315 146.59,183.044C138.835,191.165 127.027,197.628 105.99,197.628C91.7812,197.628 72.4021,194.298 60.9604,178.982C54.1354,169.753 53.2104,159.607 53.2104,143.736C53.2104,94.0942 53.2104,90.415 51.7354,67.34" style="fill:white;fill-rule:nonzero;"/>
        <path d="M232.426,146.698L208.809,91.7021L185.738,146.698C182.047,155.177 174.668,171.602 168.58,195.031C166.368,194.673 164.522,193.94 161.013,193.94C157.509,193.94 155.293,194.673 152.893,195.031C169.318,159.24 196.63,99.0729 209.73,65.8771C211.209,66.0563 212.313,66.4188 214.343,66.4188C216.005,66.4188 216.926,66.2313 218.405,65.8771C232.609,104.615 273.397,194.298 273.759,195.031C270.622,194.485 267.493,193.94 262.876,193.94C258.076,193.94 254.572,194.485 251.068,195.031C244.605,172.894 237.038,156.848 232.426,146.698" style="fill:white;fill-rule:nonzero;"/>
        <path d="M353.335,146.698L329.718,91.7021L306.647,146.698C302.96,155.177 295.576,171.602 289.489,195.031C287.276,194.673 285.43,193.94 281.922,193.94C278.418,193.94 276.201,194.673 273.801,195.031C290.226,159.24 317.539,99.0729 330.639,65.8771C332.118,66.0563 333.222,66.4188 335.255,66.4188C336.914,66.4188 337.835,66.2313 339.314,65.8771C353.518,104.615 394.305,194.298 394.668,195.031C391.53,194.485 388.401,193.94 383.789,193.94C378.985,193.94 375.48,194.485 371.976,195.031C365.518,172.894 357.947,156.848 353.335,146.698" style="fill:white;fill-rule:nonzero;"/>
        <path d="M402.946,103.941C335.425,146.599 256.838,182.278 104.021,160.753C112.613,156.458 121.438,150.408 126.958,145.249C249.254,170.745 336.346,136.616 400.65,100.774C401.417,102.216 402.133,102.762 402.946,103.941" style="fill:white;fill-rule:nonzero;"/>
        <path d="M234.357,315.302C185.24,327.973 134.503,333.902 83.9275,336.535L416.248,336.535L416.248,180.789C387.757,257.027 309.244,295.998 234.357,315.302" style="fill:rgb(255,196,38);fill-rule:nonzero;"/>
        <path d="M51.7354,67.34C55.6104,67.9025 59.3021,68.4525 62.6229,68.4525C66.6813,68.4525 70.1896,67.9025 73.3271,67.34C71.6688,91.5233 71.6688,126.582 71.6688,130.453C71.6688,153.707 72.4021,166.619 79.7854,175.661C85.6896,183.044 97.6854,187.661 109.31,187.661C114.477,187.661 139.577,186.553 145.66,160.715C148.615,148.161 148.798,127.323 148.798,122.698C148.798,115.69 148.065,79.34 146.215,67.34C148.615,67.9025 150.644,68.4525 154.894,68.4525C158.952,68.4525 160.798,67.9025 163.01,67.34C160.61,84.1358 159.873,105.169 159.873,132.49C159.873,150.386 158.952,170.315 146.59,183.044C138.835,191.165 127.027,197.628 105.99,197.628C91.7812,197.628 72.4021,194.298 60.9604,178.986C54.1354,169.757 53.2104,159.611 53.2104,143.736C53.2104,94.0983 53.2104,90.415 51.7354,67.34" style="fill:white;fill-rule:nonzero;"/>
        <path d="M232.426,146.698L208.809,91.7021L185.738,146.698C182.047,155.177 174.668,171.602 168.58,195.035C166.368,194.673 164.522,193.94 161.013,193.94C157.509,193.94 155.293,194.673 152.893,195.035C169.318,159.24 196.63,99.0771 209.73,65.8729C211.209,66.0521 212.313,66.4146 214.343,66.4146C216.005,66.4146 216.926,66.2313 218.405,65.8729C232.609,104.619 273.397,194.298 273.759,195.035C270.622,194.485 267.493,193.94 262.876,193.94C258.076,193.94 254.572,194.485 251.068,195.035C244.605,172.894 237.038,156.848 232.426,146.698" style="fill:white;fill-rule:nonzero;"/>
        <path d="M353.335,146.698L329.718,91.7021L306.647,146.698C302.96,155.177 295.576,171.602 289.489,195.035C287.276,194.673 285.43,193.94 281.922,193.94C278.418,193.94 276.201,194.673 273.801,195.035C290.226,159.24 317.539,99.0771 330.639,65.8729C332.118,66.0521 333.222,66.4146 335.255,66.4146C336.914,66.4146 337.835,66.2313 339.314,65.8729C353.518,104.619 394.305,194.298 394.668,195.035C391.53,194.485 388.401,193.94 383.789,193.94C378.985,193.94 375.48,194.485 371.976,195.035C365.518,172.894 357.947,156.848 353.335,146.698" style="fill:white;fill-rule:nonzero;"/>
        <path d="M402.946,103.941C335.425,146.599 256.838,182.283 104.021,160.758C112.613,156.458 121.438,150.408 126.958,145.253C249.254,170.745 336.346,136.616 400.65,100.774C401.417,102.216 402.133,102.766 402.946,103.941" style="fill:rgb(255,196,38);fill-rule:nonzero;"/>
        <path d="M416.25,20.1858L25.1417,20.1858L25.1417,336.536L416.25,336.536L416.25,20.1858ZM423.75,344.032L17.6417,344.032L17.6417,12.6817L423.75,12.6817L423.75,344.032Z" style="fill:white;fill-rule:nonzero;"/>
    </g>
</svg>
